<svg width="666" height="607" viewBox="0 0 666 607" fill="none" xmlns="http://www.w3.org/2000/svg">
<path opacity="0.05" d="M174.592 401.557C178.859 391.422 182.471 380.898 185.285 369.909C188.102 358.918 190.375 347.61 192.464 336.187M174.592 401.557C169.695 411.327 164.335 420.816 158.947 430.284C142.544 458.818 126.203 487.251 109.963 515.505L102.607 501.833C117.504 475.92 132.48 449.862 147.509 423.715C152.936 414.277 158.333 404.806 163.383 395.123C167.902 385.134 171.864 374.816 175.305 364.185C178.247 353.267 180.88 342.166 183.326 330.949C185.771 319.732 188.254 308.537 191.042 297.514C193.828 286.49 197.094 275.747 201.004 265.376C204.914 255.004 209.556 245.063 214.998 235.588C220.437 226.111 226.673 217.106 233.636 208.527C240.598 199.949 248.197 191.749 256.266 183.837C264.333 175.923 272.694 168.198 281.088 160.504C289.482 152.809 297.69 145.03 305.586 137.094C313 128.88 319.897 120.39 326.235 111.6C332.046 102.507 337.469 93.2194 342.816 83.915C358.101 57.3228 373.272 30.9286 388.305 4.77268L403.786 4.30882M174.592 401.557C169.695 411.327 164.337 420.817 158.945 430.275C142.544 458.811 126.199 487.245 109.961 515.496L117.316 529.167C134.897 498.579 152.604 467.774 170.383 436.844C175.752 427.377 181.09 417.872 185.855 408.025C189.894 397.759 193.21 387.067 195.691 375.883C198.172 364.698 200.097 353.188 201.834 341.562C203.569 329.935 205.366 318.344 207.529 306.96C209.694 295.578 212.438 284.533 215.972 273.945C219.507 263.357 223.945 253.298 229.387 243.823C234.829 234.347 241.266 225.458 248.604 217.097C255.942 208.735 264.058 200.834 272.743 193.281C281.429 185.724 290.473 178.39 299.571 171.106C308.669 163.822 317.576 156.446 325.941 148.777C334.302 141.11 341.847 132.99 348.676 124.488C354.796 115.573 360.289 106.326 365.692 97.0537C383.722 65.688 401.594 34.5906 419.268 3.8421L403.786 4.30882M192.464 336.187C194.553 324.764 196.69 313.369 199.167 302.167M192.464 336.187C194.55 324.763 196.69 313.369 199.167 302.167M199.167 302.167C201.647 290.966 204.653 280.073 208.383 269.598M208.383 269.598C212.111 259.121 216.656 249.124 222.095 239.647C227.537 230.172 233.87 221.222 241.015 212.749M208.383 269.598C212.111 259.121 216.655 249.12 222.097 239.644C227.539 230.169 233.87 221.222 241.015 212.749M241.015 212.749C248.16 204.276 256.013 196.224 264.387 188.491C272.762 180.755 281.465 173.224 290.215 165.738M290.215 165.738C298.964 158.253 307.522 150.676 315.554 142.815M290.215 165.738C298.965 158.25 307.526 150.675 315.554 142.815M315.554 142.815C323.583 134.955 330.835 126.667 337.428 118.029M315.554 142.815C323.583 134.955 330.834 126.67 337.428 118.029M337.428 118.029C343.406 109.031 348.872 99.7686 354.254 90.4843M337.428 118.029C343.405 109.034 348.872 99.7686 354.254 90.4843M354.254 90.4843C370.906 61.5117 387.435 32.7589 403.786 4.30882M354.254 90.4843C370.906 61.5117 387.432 32.7573 403.786 4.30882M357.341 5.6989L372.821 5.23504C359.113 29.0897 345.293 53.1323 331.377 77.3414C326.027 86.6442 320.637 95.9501 314.951 105.116C308.835 114.031 302.237 122.697 295.18 131.117C287.721 139.309 279.943 147.336 271.951 155.259C263.958 163.181 255.962 171.121 248.209 179.216C240.456 187.307 233.109 195.652 226.324 204.332C219.538 213.013 213.396 222.072 207.954 231.548C202.512 241.023 197.779 250.912 193.689 261.179C189.602 271.448 186.084 282.046 182.979 292.886C179.875 303.726 177.021 314.707 174.171 325.69C171.323 336.675 168.258 347.526 164.871 358.188C161.072 368.608 156.81 378.758 152.077 388.623C146.906 398.235 141.493 407.697 136.064 417.138C122.406 440.899 108.792 464.585 95.2435 488.157L87.888 474.486C100.089 453.26 112.339 431.944 124.626 410.568C130.054 401.131 135.48 391.677 140.758 382.126M357.341 5.6989C344.96 27.2421 332.484 48.9446 319.939 70.7721C314.592 80.0765 309.22 89.3932 303.655 98.6292C297.747 107.667 291.432 116.493 284.723 125.114M357.341 5.6989C344.96 27.2421 332.485 48.9417 319.94 70.7692C314.594 80.0736 309.222 89.3903 303.657 98.6263C297.75 107.661 291.432 116.493 284.723 125.114M357.341 5.6989L341.862 6.15991C330.806 25.3946 319.684 44.7397 308.502 64.1999C303.155 73.5043 297.793 82.8301 292.326 92.1189C286.606 101.265 280.556 110.244 274.164 119.048C267.474 127.681 260.533 136.191 253.4 144.613C246.177 152.98 238.929 161.352 231.81 169.813C224.69 178.273 217.842 186.906 211.402 195.782C204.961 204.658 198.994 213.823 193.552 223.298C188.11 232.773 183.198 242.558 178.765 252.627C174.331 262.697 170.311 273.005 166.566 283.475C162.823 293.946 159.216 304.493 155.59 315.028C151.868 325.508 147.961 335.873 143.801 346.089C139.336 356.128 134.537 365.963 129.417 375.605C124.053 385.106 118.622 394.557 113.194 403.995C102.276 422.987 91.388 441.932 80.5384 460.81L87.894 474.482C100.095 453.256 112.348 431.941 124.632 410.564C130.055 401.128 135.48 391.677 140.758 382.126M284.723 125.114C277.672 133.538 270.331 141.817 262.747 149.979M284.723 125.114C277.67 133.541 270.329 141.82 262.747 149.979M262.747 149.979C255.163 158.141 247.544 166.295 240.105 174.571C232.666 182.848 225.569 191.337 218.958 200.118C212.347 208.899 206.293 218.01 200.851 227.485C195.409 236.961 190.585 246.797 186.321 256.963C182.057 267.13 178.289 277.584 174.865 288.239C171.442 298.895 168.213 309.66 164.946 320.403C161.68 331.146 158.175 341.744 154.383 352.171C150.236 362.395 145.695 372.378 140.758 382.126M262.747 149.979C255.164 158.138 247.543 166.291 240.107 174.569C232.671 182.847 225.574 191.336 218.96 200.115C212.346 208.895 206.295 218.007 200.853 227.482C195.411 236.958 190.587 246.794 186.323 256.961C182.058 267.127 178.29 277.581 174.867 288.237C171.443 298.893 168.212 309.656 164.948 320.4C161.682 331.143 158.177 341.741 154.385 352.168C150.238 362.392 145.698 372.38 140.758 382.126M6.97084 324.093L1.2354 313.432L175.762 11.143L187.046 10.8058M6.97084 324.093L187.046 10.8058M6.97084 324.093L14.3264 337.765M187.046 10.8058L202.53 10.3435C187.483 36.5223 172.337 62.8734 157.127 89.3365C151.717 98.75 146.299 108.178 140.871 117.616C135.446 127.051 130.009 136.498 124.565 145.953C119.12 155.408 113.672 164.868 108.228 174.342C102.78 183.814 97.3394 193.294 91.8978 202.781C86.4535 212.267 81.0093 221.752 75.558 231.237C70.1083 240.72 64.6544 250.204 59.2047 259.686C44.223 285.753 29.2528 311.8 14.3264 337.765M86.9531 237.782C81.5313 247.284 76.0924 256.773 70.6428 266.255C65.1948 275.735 59.7468 285.214 54.2995 294.687C43.4102 313.634 32.5314 332.557 21.6819 351.436M86.9531 237.782C92.3722 228.278 97.7789 218.771 103.188 209.265M86.9531 237.782C92.3749 228.28 97.7789 218.771 103.188 209.265M103.188 209.265C108.598 199.76 114.017 190.268 119.462 180.794M103.188 209.265C108.595 199.758 114.017 190.268 119.462 180.794M119.462 180.794C124.907 171.32 130.373 161.87 135.85 152.434C141.326 142.998 146.806 133.575 152.261 124.157C157.718 114.736 163.15 105.316 168.56 95.9027C173.969 86.4892 179.374 77.0916 184.767 67.7068M119.462 180.794C124.905 171.323 130.374 161.863 135.851 152.431C141.329 142.999 146.806 133.575 152.263 124.154C157.72 114.733 163.149 105.312 168.561 95.8998C173.973 86.4835 179.375 77.0887 184.767 67.7068M184.767 67.7068C195.895 48.3458 206.975 29.0681 218.007 9.87363L202.526 10.3375C187.48 36.5163 172.334 62.8675 157.123 89.3305C151.713 98.744 146.293 108.17 140.868 117.61C135.443 127.049 130.004 136.495 124.561 145.947C119.118 155.399 113.671 164.864 108.224 174.336C102.779 183.81 97.3384 193.29 91.8941 202.775C86.4525 212.262 81.0056 221.746 75.5543 231.232C70.103 240.717 64.6534 250.199 59.2037 259.682C44.223 285.753 29.2528 311.8 14.3264 337.765M184.767 67.7068C195.895 48.3458 206.978 29.0623 218.008 9.87074L233.489 9.40687C221.124 30.917 208.691 52.5447 196.204 74.2717C190.811 83.6565 185.406 93.0541 179.964 102.449C174.522 111.844 169.024 121.225 163.486 130.6C157.949 139.974 152.394 149.354 146.856 158.754C141.315 168.153 135.819 177.586 130.374 187.06C124.93 196.533 119.542 206.044 114.195 215.585C108.847 225.127 103.521 234.68 98.1819 244.231C92.8433 253.781 87.4714 263.308 82.0513 272.808C76.6312 282.307 71.1848 291.784 65.7392 301.253C53.4844 322.578 41.2451 343.87 29.0391 365.104L21.6819 351.436M14.3264 337.765L21.6819 351.436M326.376 6.62512L341.857 6.16126C330.802 25.3959 319.681 44.7454 308.498 64.2012C303.148 73.504 297.79 82.8285 292.322 92.1202C286.603 101.264 280.552 110.246 274.16 119.05C267.471 127.687 260.527 136.195 253.395 144.615C246.173 152.981 238.925 161.353 231.805 169.814C224.69 178.273 217.84 186.905 211.397 195.784C204.955 204.662 198.99 213.824 193.548 223.299C188.106 232.775 183.193 242.56 178.76 252.629C174.327 262.698 170.307 273.006 166.562 283.476C162.819 293.948 159.212 304.494 155.586 315.029C151.861 325.507 147.954 335.873 143.797 346.09C139.333 356.126 134.533 365.964 129.413 375.606C124.049 385.108 118.616 394.554 113.19 403.996C102.274 422.99 91.3863 441.934 80.5341 460.812L73.1786 447.14C82.6759 430.616 92.2031 414.04 101.752 397.427C107.177 387.988 112.608 378.537 118.026 369.067M326.376 6.62512C316.652 23.5426 306.881 40.5405 297.062 57.629M326.376 6.62512C316.655 23.5442 306.884 40.5421 297.062 57.629M326.376 6.62512L310.896 7.08907C302.507 21.6808 294.083 36.3401 285.621 51.0582C280.274 60.3626 274.911 69.6884 269.539 79.0314C264.092 88.3355 258.463 97.5578 252.613 106.675C246.551 115.67 240.288 124.572 233.815 133.375C227.343 142.175 220.774 150.939 214.247 159.742C207.72 168.545 201.344 177.45 195.228 186.513C189.112 195.577 183.31 204.84 177.872 214.314C172.435 223.788 167.349 233.477 162.586 243.356C157.823 253.234 153.328 263.268 148.984 273.393C144.641 283.518 140.35 293.669 135.962 303.765C131.575 313.86 126.984 323.831 122.196 333.684C117.192 343.412 111.977 353.007 106.6 362.501C101.164 371.96 95.7321 381.411 90.3074 390.85C82.1258 405.083 73.9591 419.29 65.815 433.464L73.1705 447.136C82.6695 430.608 92.1967 414.033 101.744 397.422C107.178 387.985 112.61 378.534 118.026 369.067M297.062 57.629C291.715 66.9334 286.354 76.2563 280.952 85.5868M280.952 85.5868C275.39 94.8243 269.571 103.937 263.469 112.908M280.952 85.5868C275.392 94.8214 269.569 103.935 263.469 112.908M263.469 112.908C257.112 121.733 250.525 130.447 243.716 139.057M263.469 112.908C257.11 121.735 250.523 130.45 243.716 139.057M243.716 139.057C236.909 147.664 230.013 156.238 223.201 164.877C216.39 173.516 209.786 182.29 203.513 191.266C197.24 200.242 191.358 209.452 185.763 218.839C180.474 228.403 175.475 238.138 170.873 248.11C166.269 258.08 162.002 268.245 157.948 278.537C153.894 288.829 149.93 299.17 145.883 309.462M145.883 309.462C141.834 319.753 137.57 329.912 133.078 339.936M145.883 309.462C141.834 319.753 137.567 329.911 133.078 339.936M133.078 339.936C128.322 349.807 123.296 359.511 118.026 369.067M99.948 320.908C105.183 311.313 110.292 301.641 115.243 291.871C120.193 282.101 125.042 272.271 129.879 262.431M99.948 320.908C94.5962 330.431 89.1683 339.907 83.7276 349.368C72.83 368.33 61.9496 387.256 51.105 406.126L43.7495 392.454C53.2445 375.94 62.7601 359.385 72.2922 342.8C77.7313 333.342 83.171 323.877 88.6022 314.396C93.9771 304.882 99.2652 295.314 104.468 285.689C109.593 276.019 114.662 266.317 119.706 256.596C124.749 246.875 129.818 237.173 134.983 227.526C140.146 217.878 145.439 208.313 150.881 198.838C156.326 189.364 161.919 179.987 167.637 170.691C173.355 161.394 179.164 152.161 184.997 142.957C190.829 133.753 196.628 124.545 202.365 115.321C208.029 106.05 213.597 96.7469 219.066 87.4099C224.476 78.0388 229.861 68.6757 235.232 59.3282C245.017 42.3073 254.758 25.3611 264.457 8.4866L279.938 8.02274M99.948 320.908C94.5946 330.434 89.1699 339.904 83.7336 349.364C72.8333 368.324 61.9572 387.249 51.111 406.122L58.4665 419.793C65.2594 407.978 72.0629 396.138 78.8791 384.283C84.3022 374.846 89.7336 365.395 95.1699 355.936C100.598 346.472 105.952 336.957 111.161 327.347M129.879 262.431C134.716 252.592 139.616 242.792 144.663 233.077M129.879 262.431C134.716 252.592 139.619 242.793 144.663 233.077M144.663 233.077C149.708 223.361 154.937 213.759 160.304 204.24C165.824 194.81 171.478 185.468 177.314 176.24M144.663 233.077C149.708 223.361 154.939 213.756 160.306 204.237C165.824 194.81 171.478 185.468 177.314 176.24M177.314 176.24C183.153 167.012 189.129 157.876 195.163 148.793C201.2 139.706 207.219 130.625 213.173 121.526M213.173 121.526C219.041 112.378 224.789 103.178 230.402 93.9203M213.173 121.526C219.043 112.375 224.791 103.175 230.402 93.9203M230.402 93.9203C235.896 84.5973 241.3 75.2421 246.67 65.8975M230.402 93.9203C235.896 84.5973 241.299 75.2449 246.67 65.8975M246.67 65.8975C252.042 56.55 257.403 47.2271 262.75 37.9227M246.67 65.8975C252.041 56.5529 257.403 47.2271 262.75 37.9227M262.75 37.9227C268.497 27.9264 274.223 17.9645 279.938 8.02274M279.938 8.02274L295.423 7.55753M295.423 7.55753L310.904 7.09367C302.515 21.6854 294.089 36.3476 285.629 51.0629C280.282 60.3672 274.921 69.6902 269.547 79.0361C264.099 88.3358 258.471 97.5624 252.621 106.68C246.557 115.677 240.295 124.579 233.823 133.38C227.351 142.18 220.782 150.943 214.255 159.746C207.729 168.546 201.351 177.45 195.236 186.518C189.121 195.586 183.322 204.843 177.88 214.319C172.438 223.794 167.357 233.481 162.594 243.36C157.831 253.239 153.336 263.273 148.992 273.398C144.649 283.522 140.358 293.674 135.97 303.769C131.583 313.865 126.992 323.836 122.205 333.689C117.201 343.414 111.985 353.012 106.608 362.505C101.172 371.965 95.7402 381.415 90.3127 390.853C82.1322 405.091 73.9672 419.295 65.8204 433.467L58.4649 419.796C65.2578 407.981 72.0639 396.142 78.8774 384.285C84.3022 374.846 89.7362 365.397 95.1726 355.937C100.601 346.473 105.952 336.957 111.161 327.347M295.423 7.55753C288.371 19.8279 281.297 32.1357 274.193 44.4907C268.846 53.7951 263.483 63.1208 258.113 72.4654M295.423 7.55753C288.368 19.8264 281.292 32.1326 274.19 44.4892C268.843 53.7936 263.485 63.118 258.113 72.4654M258.113 72.4654C252.728 81.8052 247.244 91.111 241.6 100.347M258.113 72.4654C252.729 81.8023 247.244 91.111 241.6 100.347M241.6 100.347C235.788 109.486 229.809 118.552 223.636 127.529M241.6 100.347C235.789 109.491 229.808 118.555 223.636 127.529M223.636 127.529C217.465 136.503 211.186 145.433 204.919 154.387M204.919 154.387C198.652 163.34 192.485 172.366 186.518 181.519C180.55 190.672 174.827 199.973 169.385 209.448M204.919 154.387C198.652 163.34 192.485 172.366 186.515 181.517C180.545 190.669 174.827 199.973 169.385 209.448M169.385 209.448C163.943 218.924 158.783 228.566 153.87 238.358M169.385 209.448C163.943 218.924 158.781 228.564 153.87 238.358M153.87 238.358C148.957 248.15 144.247 258.06 139.644 268.035M139.644 268.035C135.04 278.009 130.454 287.99 125.763 297.911M139.644 268.035C135.04 278.009 130.451 287.989 125.763 297.911M125.763 297.911C121.073 307.831 116.198 317.638 111.161 327.347M408.886 498.366C414.328 488.89 419.766 479.409 425.197 469.916M408.886 498.366C403.441 507.84 398 517.308 392.562 526.763M408.886 498.366C403.441 507.84 397.999 517.303 392.562 526.763M425.197 469.916C430.628 460.423 436.053 450.926 441.469 441.421M425.197 469.916C430.628 460.423 436.05 450.925 441.469 441.421M441.469 441.421C446.883 431.914 452.287 422.405 457.697 412.9M457.697 412.9C463.106 403.394 468.526 393.902 473.97 384.428C479.415 374.954 484.884 365.506 490.361 356.07M457.697 412.9C463.106 403.394 468.524 393.905 473.969 384.431C479.413 374.957 484.884 365.506 490.361 356.07M490.361 356.07C495.84 346.635 501.317 337.211 506.779 327.793C512.239 318.374 517.684 308.962 523.113 299.559C528.541 290.156 533.956 280.765 539.352 271.382C544.744 262 550.13 252.634 555.5 243.289C569.77 218.461 583.956 193.784 598.036 169.286M490.361 356.07C495.837 346.634 501.315 337.214 506.778 327.796C512.237 318.377 517.682 308.964 523.111 299.562C528.544 290.158 533.956 280.765 539.35 271.384C544.742 262.003 550.126 252.639 555.498 243.292C569.768 218.464 583.956 193.784 598.036 169.286M598.036 169.286L590.68 155.615C575.261 182.44 559.715 209.49 544.062 236.72C538.69 246.067 533.306 255.43 527.914 264.812C522.498 274.18 517.054 283.555 511.583 292.937C506.112 302.315 500.597 311.687 495.038 321.049C489.479 330.411 483.908 339.781 478.356 349.169C472.804 358.562 467.293 367.99 461.847 377.459C456.403 386.933 451.026 396.45 445.689 405.998C440.355 415.547 435.045 425.11 429.727 434.672C424.407 444.233 419.054 453.772 413.666 463.29C408.276 472.806 402.87 482.306 397.447 491.792C392.002 501.266 386.562 510.731 381.123 520.189C365.687 547.042 350.294 573.829 334.972 600.484L350.453 600.02M598.036 169.286L605.392 182.962M350.453 600.02C364.439 575.69 378.483 551.253 392.562 526.763M350.453 600.02L365.932 599.559C383.987 568.15 402.134 536.576 420.319 504.936C431.214 485.992 442.11 467.021 453.005 448.05C463.901 429.08 474.794 410.107 485.683 391.16M612.75 196.635C596.04 225.708 579.186 255.031 562.23 284.529M612.75 196.635L620.104 210.309L396.899 598.635L381.418 599.098M612.75 196.635C596.039 225.711 579.184 255.034 562.23 284.529M612.75 196.635L605.392 182.962M562.23 284.529C540.659 322.058 518.931 359.86 497.153 397.748C475.373 435.638 453.542 473.618 431.763 511.509M562.23 284.529C540.659 322.058 518.93 359.855 497.15 397.746C475.371 435.637 453.542 473.618 431.763 511.509M431.763 511.509C414.935 540.786 398.137 570.011 381.418 599.098M431.763 511.509C414.933 540.789 398.137 570.011 381.418 599.098M381.418 599.098L365.937 599.562C383.99 568.152 402.14 536.579 420.325 504.939C431.217 485.993 442.112 467.023 453.008 448.052C463.903 429.081 474.793 410.103 485.683 391.16M605.392 182.962C587.344 214.359 569.125 246.057 550.791 277.955C540.004 296.72 529.175 315.55 518.318 334.424C507.46 353.298 496.572 372.212 485.683 391.16M605.392 182.962C587.346 214.361 569.124 246.052 550.788 277.954C540.004 296.72 529.172 315.549 518.315 334.423C507.46 353.298 496.571 372.215 485.683 391.16M627.461 223.978L412.381 598.168M627.461 223.978L634.817 237.649M627.461 223.978L620.106 210.306L396.901 598.632L412.381 598.168M412.381 598.168L427.862 597.704M427.862 597.704L634.817 237.649M427.862 597.704L443.343 597.24M634.817 237.649L642.175 251.322M664.242 292.336L664.888 293.54L490.361 595.829L489.789 595.847M664.242 292.336L489.789 595.847M664.242 292.336L656.886 278.665M489.789 595.847L474.309 596.311M656.886 278.665L474.309 596.311M656.886 278.665L649.531 264.993M474.309 596.311L458.825 596.773M642.175 251.322L443.343 597.24M642.175 251.322L649.531 264.993M443.343 597.24L458.825 596.773M458.825 596.773L649.531 264.993M539.187 59.9166L546.543 73.588C528.396 105.155 510.036 137.099 491.512 169.325C486.031 178.552 480.584 187.825 475.011 197.056C469.411 206.268 463.491 215.326 457.048 224.101C450.601 232.877 443.646 241.379 436.265 249.655C428.876 257.925 421.137 266.014 413.283 274.05C405.428 282.087 397.727 290.227 390.564 298.69C383.4 307.152 376.992 316.058 371.548 325.532C366.103 335.005 361.63 345.044 357.916 355.528C354.202 366.013 351.026 376.808 348.016 387.703C345.005 398.597 341.881 409.422 338.411 420.047C334.935 430.669 331.034 441.038 326.638 451.117C322.223 461.186 317.301 470.95 312.082 480.535C306.84 490.103 301.495 499.603 296.202 509.123C278.069 540.666 260.012 572.085 242.084 603.273M539.187 59.9166C524.945 84.6957 510.571 109.705 496.079 134.917C490.733 144.157 485.373 153.423 479.975 162.698M539.187 59.9166L531.832 46.2452C516.261 73.3386 500.517 100.726 484.641 128.348C479.293 137.586 473.929 146.851 468.526 156.123C463.12 165.393 457.629 174.644 451.789 183.718C445.93 192.784 439.448 201.514 432.163 209.802C424.862 218.082 416.794 225.941 408.076 233.448C399.359 240.953 390.212 248.228 381.057 255.513C371.901 262.799 363.112 270.311 355.154 278.315C347.197 286.319 340.36 294.977 334.918 304.452C329.476 313.928 325.432 324.214 322.514 335.158C319.597 346.102 317.524 357.535 315.822 369.185C314.12 380.835 312.415 392.479 310.278 403.874C308.141 415.268 305.352 426.28 301.796 436.844C298.226 447.4 293.859 457.484 288.881 467.209C283.89 476.925 278.585 486.449 273.216 495.921C267.845 505.391 262.454 514.834 257.074 524.265C241.679 551.047 226.349 577.716 211.124 604.205L226.605 603.741C245.858 570.245 265.27 536.473 284.767 502.555C290.038 493.023 295.362 483.51 300.498 473.877M479.975 162.698C474.577 171.973 469.104 181.235 463.418 190.397M479.975 162.698C474.577 171.973 469.106 181.233 463.418 190.397M463.418 190.397C457.703 199.547 451.525 208.451 444.679 216.994M463.418 190.397C457.704 199.544 451.525 208.451 444.679 216.994M444.679 216.994C437.829 225.533 430.348 233.733 422.319 241.638M444.679 216.994C437.827 225.536 430.347 233.735 422.319 241.638M422.319 241.638C414.286 249.537 405.816 257.202 397.264 264.836M397.264 264.836C388.712 272.47 380.421 280.27 372.827 288.48M397.264 264.836C388.711 272.465 380.42 280.265 372.827 288.48M372.827 288.48C365.233 296.69 358.59 305.464 353.148 314.94M372.827 288.48C365.234 296.694 358.593 305.466 353.148 314.94M353.148 314.94C347.706 324.415 343.464 334.587 340.185 345.322M340.185 345.322C336.902 356.056 334.328 367.198 332.017 378.497M340.185 345.322C336.902 356.056 334.325 367.196 332.017 378.497M332.017 378.497C329.709 389.797 327.32 401.046 324.499 412.046C321.664 423.038 318.289 433.71 314.292 444.02M314.292 444.02C310.28 454.321 305.613 464.232 300.498 473.877M314.292 444.02C310.279 454.316 305.613 464.232 300.498 473.877M300.498 473.877C295.365 483.512 290.041 493.024 284.766 502.551C265.269 536.469 245.858 570.238 226.604 603.737L242.084 603.273M242.084 603.273C260.012 572.085 278.07 540.671 296.201 509.126C301.494 499.61 306.84 490.11 312.083 480.539C317.302 470.954 322.224 461.19 326.639 451.122C331.035 441.042 334.936 430.674 338.412 420.052C341.882 409.427 345.004 398.6 348.017 387.707C351.03 376.814 354.203 366.017 357.917 355.533C361.631 345.049 366.104 335.01 371.549 325.536C376.991 316.061 383.401 307.156 390.565 298.694C397.731 290.233 405.429 282.091 413.284 274.055C421.139 266.018 428.877 257.93 436.266 249.659C443.649 241.381 450.603 232.878 457.049 224.105C463.495 215.332 469.41 206.275 475.012 197.061C480.585 187.83 486.032 178.556 491.513 169.329C510.037 137.103 528.397 105.159 546.544 73.5924L553.899 87.2638C537.085 116.518 520.086 146.09 502.951 175.898C497.492 185.138 492.069 194.425 486.566 203.697C481.046 212.955 475.34 222.136 469.241 231.109C463.137 240.084 456.641 248.851 449.807 257.442C442.97 266.032 435.859 274.483 428.664 282.9C421.466 291.312 414.38 299.807 407.669 308.531C400.959 317.255 394.798 326.303 389.353 335.777C383.911 345.252 379.186 355.146 375.016 365.367C370.843 375.586 367.056 386.029 363.386 396.542C359.713 407.054 355.956 417.514 351.933 427.82C347.907 438.125 343.55 448.23 338.803 458.106C334.054 467.978 328.924 477.626 323.63 487.167C318.322 496.701 312.957 506.186 307.639 515.695C290.866 544.87 274.161 573.934 257.563 602.812L242.084 603.273ZM405.022 420.478C400.088 430.262 395.103 440.012 389.994 449.691C384.874 459.364 379.634 468.96 374.289 478.491C368.927 488.013 363.542 497.513 358.241 507.054C340.089 538.637 321.99 570.128 304.005 601.416L288.524 601.88C307.84 568.275 327.288 534.435 346.805 500.482C352.018 490.894 357.362 481.373 362.594 471.777C367.824 462.18 372.855 452.463 377.704 442.634C382.542 432.798 387.219 422.87 391.836 412.903C396.454 402.936 401.115 392.998 405.963 383.169C410.812 373.34 415.915 363.665 421.36 354.191C426.805 344.718 432.588 335.451 438.625 326.338C444.662 317.225 450.879 308.228 457.135 299.269C463.394 290.311 469.582 281.328 475.606 272.269C481.621 263.201 487.444 254.045 493.058 244.792C498.664 235.534 504.145 226.226 509.745 217.01C529.552 182.555 549.194 148.38 568.609 114.602L575.965 128.274C557.878 159.737 539.6 191.538 521.183 223.58M405.022 420.478C409.953 410.692 414.904 400.921 419.97 391.218C425.036 381.514 430.26 371.909 435.704 362.435M405.022 420.478C409.953 410.692 414.906 400.923 419.973 391.219C425.036 381.514 430.26 371.909 435.704 362.435M405.022 420.478C400.091 430.263 395.106 440.014 389.997 449.693C384.877 459.365 379.634 468.96 374.292 478.492C368.933 488.016 363.549 497.513 358.252 507.053C340.099 538.639 321.999 570.125 304.016 601.415L319.497 600.951C336.149 571.978 352.896 542.842 369.693 513.624C375.055 504.126 380.473 494.644 385.886 485.156M435.704 362.435C441.149 352.961 446.811 343.624 452.631 334.386M452.631 334.386C458.451 325.148 464.381 315.986 470.322 306.848C476.267 297.709 482.147 288.548 487.9 279.332M452.631 334.386C458.45 325.151 464.38 315.988 470.325 306.85C476.267 297.709 482.147 288.548 487.9 279.332M487.9 279.332C493.642 270.111 499.25 260.831 504.748 251.507C510.228 242.176 515.671 232.842 521.183 223.58M487.9 279.332C493.641 270.106 499.255 260.83 504.751 251.508C510.231 242.177 515.669 232.845 521.183 223.58M521.183 223.58C539.6 191.538 557.883 159.74 575.967 128.275L583.323 141.946M385.886 485.156C391.288 475.657 396.648 466.131 401.942 456.559C407.237 446.987 412.45 437.368 417.612 427.716M385.886 485.156C380.471 494.647 375.058 504.127 369.689 513.626C352.894 542.845 336.149 571.978 319.492 600.952L334.973 600.488C350.293 573.836 365.689 547.051 381.124 520.193C386.563 510.735 392.003 501.27 397.448 491.796C402.871 482.31 408.274 472.809 413.667 463.294C419.055 453.776 424.408 444.238 429.728 434.677C435.048 425.115 440.356 415.551 445.69 406.002C451.024 396.453 456.401 386.936 461.848 377.464C467.293 367.99 472.805 358.567 478.357 349.174C483.908 339.781 489.482 330.412 495.039 321.053C500.598 311.691 506.113 302.319 511.584 292.941C517.053 283.562 522.498 274.188 527.915 264.817C533.307 255.435 538.693 246.069 544.063 236.724C559.713 209.493 575.262 182.444 590.681 155.619L583.323 141.946M417.612 427.716C422.773 418.063 427.936 408.415 433.158 398.801M417.612 427.716C422.773 418.063 427.933 408.413 433.158 398.801M433.158 398.801C438.382 389.188 443.694 379.634 449.139 370.161M433.158 398.801C438.379 389.187 443.694 379.634 449.139 370.161M449.139 370.161C454.584 360.687 460.157 351.299 465.822 341.971M465.822 341.971C471.483 332.642 477.204 323.358 482.919 314.086M465.822 341.971C471.486 332.643 477.204 323.358 482.919 314.086M482.919 314.086C488.633 304.814 494.29 295.524 499.856 286.2M482.919 314.086C488.633 304.814 494.286 295.525 499.856 286.2M499.856 286.2C505.421 276.877 510.914 267.53 516.353 258.172M499.856 286.2C505.425 276.875 510.915 267.527 516.353 258.172M516.353 258.172C521.776 248.808 527.184 239.455 532.624 230.15M516.353 258.172C521.776 248.808 527.182 239.458 532.624 230.15M532.624 230.15C549.656 200.52 566.573 171.088 583.323 141.946M532.624 230.15C549.656 200.52 566.571 171.091 583.323 141.946M163.376 395.116C167.898 385.128 171.857 374.808 175.298 364.178C178.241 353.259 180.873 342.158 183.319 330.942C185.765 319.725 188.251 308.531 191.036 297.507C193.821 286.482 197.085 275.738 200.998 265.368C204.908 254.997 209.552 245.057 214.992 235.58C220.433 226.105 226.667 217.098 233.63 208.52C240.592 199.942 248.193 191.744 256.26 183.829C264.329 175.917 272.687 168.186 281.082 160.496C289.477 152.806 297.684 145.027 305.58 137.087C312.996 128.874 319.892 120.38 326.228 111.593C332.042 102.501 337.463 93.212 342.809 83.9076C358.093 57.3182 373.264 30.924 388.298 4.76524L372.818 5.22909C359.107 29.0822 345.285 53.1276 331.373 77.3354C326.026 86.6398 320.631 95.947 314.947 105.11C308.83 114.027 302.233 122.691 295.176 131.111C287.719 139.3 279.941 147.328 271.947 155.253C263.953 163.178 255.959 171.115 248.206 179.21C240.45 187.304 233.104 195.649 226.32 204.326C219.536 213.004 213.392 222.066 207.95 231.542C202.508 241.017 197.775 250.906 193.685 261.173C189.596 271.441 186.077 282.038 182.975 292.88C179.874 303.722 177.018 314.701 174.167 325.684C171.316 336.667 168.254 347.52 164.867 358.182C161.066 368.605 156.807 378.752 152.073 388.617C146.902 398.229 141.49 407.691 136.062 417.129C122.406 440.887 108.79 464.577 95.2414 488.148L102.597 501.82C117.491 475.905 132.47 449.848 147.499 423.701C152.931 414.266 158.328 404.795 163.376 395.116ZM196.736 414.272C200.987 404.129 204.078 393.304 206.284 381.964C208.489 370.62 210.11 358.935 211.523 347.122C212.936 335.309 214.403 323.527 216.258 311.965C218.112 300.403 220.585 289.202 223.918 278.498C227.249 267.792 231.572 257.667 237.013 248.191C242.455 238.716 249.008 229.894 256.55 221.65C264.089 213.404 272.476 205.66 281.471 198.282C290.466 190.903 299.837 183.758 309.257 176.66C318.676 169.561 327.887 162.361 336.525 154.85C345.159 147.34 352.93 139.351 359.558 130.732C366.186 122.114 371.707 112.88 377.134 103.622C396.54 69.8612 415.767 36.4109 434.753 3.37686L419.272 3.84076C401.6 34.5863 383.726 65.6822 365.696 97.0523C360.293 106.324 354.8 115.571 348.68 124.487C341.85 132.992 334.309 141.11 325.945 148.776C317.582 156.442 308.675 163.817 299.576 171.105C290.476 178.392 281.433 185.723 272.747 193.279C264.061 200.836 255.942 208.735 248.608 217.095C241.27 225.457 234.831 234.349 229.391 243.821C223.949 253.297 219.511 263.355 215.977 273.944C212.442 284.532 209.699 295.576 207.533 306.959C205.367 318.341 203.573 329.934 201.838 341.561C200.104 353.188 198.176 364.696 195.695 375.881C193.214 387.066 189.899 397.758 185.86 408.024C181.094 417.871 175.754 427.374 170.385 436.846C152.607 467.775 134.9 498.581 117.319 529.169L124.674 542.84C143.597 509.922 162.668 476.742 181.823 443.415C187.166 433.932 192.485 424.416 196.736 414.272ZM216.039 463.07C221.416 453.603 226.667 444.048 230.887 433.89C235.084 423.715 238.035 412.813 239.915 401.282C241.795 389.75 242.921 377.778 243.685 365.591C244.451 353.405 245.151 341.18 246.198 329.152C247.246 317.124 248.954 305.481 251.67 294.421C254.387 283.361 258.336 273.02 263.778 263.545C269.22 254.069 276.149 245.464 284.302 237.573C292.455 229.682 301.607 222.379 311.402 215.467C321.198 208.551 331.334 201.847 341.4 195.122C351.466 188.397 361.175 181.485 370.141 174.162C379.108 166.845 387.023 158.939 393.702 150.35C400.367 141.749 405.945 132.551 411.343 123.276C416.738 114 422.099 104.734 427.441 95.4923C445.549 63.9872 463.481 32.7909 481.188 1.98502L465.708 2.44893C449.317 30.9679 432.734 59.8155 416.003 88.923C410.663 98.1662 405.308 107.435 399.918 116.715C394.529 125.995 388.965 135.204 382.227 143.759C375.487 152.317 367.52 160.189 358.566 167.514C349.613 174.84 339.982 181.797 330.056 188.607C320.132 195.414 310.195 202.233 300.629 209.281C291.06 216.328 282.142 223.766 274.182 231.768C266.222 239.77 259.414 248.446 253.972 257.921C248.53 267.397 244.46 277.668 241.55 288.616C238.64 299.565 236.699 311.073 235.421 322.968C234.143 334.863 233.245 346.973 232.336 359.077C231.43 371.183 230.227 383.109 228.339 394.636C226.451 406.163 223.554 417.096 219.407 427.301C215.261 437.505 209.99 447.049 204.689 456.559C182.775 494.683 160.971 532.616 139.377 570.185L146.739 583.857C164.325 553.261 182.057 522.412 199.879 491.408C205.269 481.979 210.663 472.537 216.039 463.07ZM227.465 469.636C232.833 460.164 238.074 450.603 242.416 440.512C246.737 430.409 249.859 419.606 251.852 408.139C253.848 396.674 255.016 384.727 255.748 372.521C256.48 360.315 257.075 348.029 257.969 335.913C258.863 323.797 260.394 312.052 262.961 300.905C265.527 289.758 269.38 279.362 274.822 269.886C280.264 260.411 287.289 251.861 295.595 244.058C303.901 236.256 313.227 229.054 323.177 222.227C333.129 215.401 343.37 208.758 353.47 202.052C363.571 195.347 373.24 188.412 382.099 181.028C390.956 173.646 398.704 165.645 405.257 156.983C411.785 148.303 417.366 139.107 422.772 129.837C428.173 120.563 433.536 111.299 438.884 102.06C458.372 68.1564 477.659 34.6027 496.675 1.51699L481.194 1.98084C463.487 32.7867 445.555 63.9831 427.447 95.4881C422.105 104.73 416.744 113.996 411.349 123.272C405.951 132.547 400.371 141.748 393.708 150.346C387.03 158.939 379.114 166.841 370.147 174.158C361.18 181.476 351.474 188.39 341.406 195.118C331.34 201.843 321.204 208.547 311.408 215.462C301.611 222.378 292.46 229.681 284.308 237.569C276.156 245.456 269.225 254.068 263.784 263.54C258.344 273.013 254.393 283.357 251.676 294.417C248.96 305.477 247.252 317.12 246.204 329.148C245.157 341.176 244.457 353.4 243.691 365.587C242.924 377.773 241.801 389.746 239.921 401.277C238.041 412.809 235.09 423.711 230.893 433.886C226.672 444.047 221.42 453.602 216.045 463.066C210.669 472.533 205.275 481.975 199.886 491.401C182.065 522.405 164.333 553.254 146.747 583.85L154.102 597.521C173.026 564.596 192.124 531.375 211.324 497.97C216.7 488.548 222.094 479.106 227.465 469.636ZM219.414 427.301C223.561 417.097 226.455 406.162 228.346 394.636C230.234 383.109 231.437 371.183 232.343 359.077C233.252 346.973 234.15 334.863 235.428 322.968C236.706 311.073 238.648 299.566 241.557 288.617C244.467 277.668 248.537 267.397 253.979 257.921C259.421 248.446 266.229 239.771 274.189 231.768C282.149 223.766 291.067 216.328 300.636 209.282C310.205 202.235 320.139 195.415 330.063 188.607C339.987 181.8 349.616 174.841 358.574 167.514C367.531 160.188 375.496 152.314 382.234 143.759C388.973 135.202 394.536 125.995 399.925 116.715C405.315 107.436 410.67 98.1665 416.01 88.9233C432.741 59.8157 449.322 30.9666 465.715 2.44913L450.234 2.91304C429.937 38.2225 409.353 74.0359 388.572 110.191C383.121 119.435 377.583 128.656 370.856 137.221C364.13 145.787 356.217 153.69 347.379 161.082C338.54 168.474 329.083 175.531 319.381 182.47C309.679 189.406 300.007 196.378 290.715 203.584C281.423 210.791 272.765 218.379 265.015 226.499C257.266 234.619 250.584 243.374 245.143 252.847C239.701 262.322 235.505 272.521 232.383 283.347C229.262 294.174 227.06 305.531 225.506 317.266C223.952 329.002 222.791 340.96 221.66 352.936C220.528 364.911 219.156 376.74 217.152 388.201C215.149 399.661 212.201 410.565 208.041 420.761C203.882 430.958 198.587 440.488 193.261 449.984C172.728 485.704 152.29 521.265 132.031 556.509L139.385 570.183C160.979 532.614 182.785 494.677 204.698 456.557C209.999 447.046 215.268 437.505 219.414 427.301ZM208.035 420.766C212.195 410.569 215.143 399.665 217.146 388.205C219.15 376.744 220.522 364.915 221.654 352.94C222.785 340.964 223.946 329.006 225.5 317.271C227.054 305.535 229.256 294.178 232.377 283.351C235.499 272.525 239.695 262.326 245.137 252.851C250.579 243.376 257.258 234.626 265.009 226.503C272.76 218.38 281.418 210.792 290.709 203.588C300.001 196.382 309.676 189.412 319.375 182.474C329.076 175.538 338.533 168.481 347.373 161.086C356.211 153.694 364.126 145.788 370.85 137.225C377.577 128.66 383.115 119.439 388.566 110.195C409.347 74.0401 429.933 38.2238 450.228 2.91725L434.747 3.3811C415.761 36.4151 396.534 69.8655 377.128 103.626C371.701 112.884 366.183 122.12 359.552 130.737C352.921 139.353 345.153 147.344 336.519 154.854C327.882 162.362 318.672 169.563 309.251 176.664C299.831 183.762 290.46 190.908 281.465 198.286C272.47 205.664 264.083 213.408 256.544 221.654C249.002 229.898 242.449 238.72 237.007 248.196C231.566 257.671 227.243 267.796 223.912 278.502C220.579 289.206 218.106 300.408 216.252 311.969C214.397 323.531 212.93 335.313 211.517 347.126C210.104 358.939 208.485 370.625 206.278 381.968C204.073 393.313 200.981 404.133 196.73 414.277C192.479 424.421 187.16 433.936 181.813 443.421C162.659 476.745 143.588 509.925 124.664 542.846L132.019 556.517C152.279 521.271 172.716 485.713 193.249 449.993C198.583 440.489 203.877 430.959 208.035 420.766ZM238.895 476.201C244.255 466.724 249.504 457.168 254.003 447.171C258.468 437.151 261.872 426.511 264.115 415.188C266.357 403.865 267.71 392.026 268.549 379.881C269.388 367.737 270.008 355.466 270.862 343.326C271.716 331.187 273.166 319.396 275.652 308.202C278.138 297.009 281.94 286.583 287.385 277.109C292.827 267.634 299.903 259.113 308.29 251.357C316.676 243.601 326.08 236.443 336.073 229.646C346.066 222.843 356.285 216.187 366.284 209.423C376.283 202.659 385.772 195.62 394.386 188.095C402.999 180.573 410.469 172.41 416.858 163.654C423.225 154.881 428.796 145.679 434.207 136.412C439.613 127.141 444.976 117.877 450.327 108.64C470.376 73.7583 490.213 39.2441 509.763 5.23394L507.593 1.20154L496.678 1.53022C477.662 34.6159 458.376 68.1696 438.887 102.074C433.539 111.312 428.178 120.578 422.775 129.85C417.367 139.119 411.784 148.318 405.26 156.996C398.703 165.659 390.956 173.658 382.102 181.041C373.245 188.422 363.576 195.358 353.474 202.066C343.373 208.771 333.132 215.414 323.18 222.24C313.228 229.065 303.902 236.268 295.598 244.072C287.295 251.876 280.267 260.424 274.825 269.9C269.383 279.375 265.53 289.771 262.964 300.918C260.4 312.067 258.866 323.81 257.972 335.926C257.078 348.043 256.483 360.328 255.751 372.534C255.016 384.739 253.848 396.685 251.855 408.152C249.862 419.619 246.74 430.422 242.419 440.526C238.077 450.617 232.836 460.178 227.468 469.649C222.097 479.12 216.703 488.561 211.322 497.992C192.122 531.396 173.027 564.62 154.1 597.543L158.537 605.79L164.679 605.607C183.884 572.194 203.269 538.471 222.759 504.564C228.138 495.117 233.526 485.673 238.895 476.201ZM77.1782 307.827C82.6175 298.35 88.0209 288.848 93.374 279.31C98.6708 269.74 103.917 260.14 109.126 250.515C114.336 240.89 119.55 231.272 124.815 221.682C130.079 212.093 135.423 202.558 140.868 193.084C146.313 183.61 151.852 174.202 157.47 164.848C163.089 155.494 168.757 146.179 174.421 136.882C180.087 127.582 185.712 118.274 191.251 108.934C196.789 99.5953 202.239 90.224 207.643 80.8454C213.035 71.4635 218.421 62.0975 223.791 52.7529C232.216 38.098 240.609 23.4932 248.971 8.94741L233.49 9.41127C221.125 30.9214 208.695 52.5507 196.205 74.2762C190.813 83.6581 185.409 93.0557 179.965 102.453C174.523 111.848 169.025 121.23 163.487 130.604C157.95 139.978 152.393 149.356 146.857 158.758C141.319 168.159 135.82 177.59 130.375 187.064C124.931 196.538 119.543 206.048 114.196 215.59C108.848 225.131 103.522 234.685 98.183 244.235C92.8443 253.785 87.4698 263.311 82.0523 272.812C76.6322 282.311 71.1859 291.788 65.7412 301.262C53.4837 322.585 41.2472 343.879 29.0411 365.113L36.3956 378.78C44.5341 364.622 52.6892 350.435 60.8532 336.226C66.2922 326.769 71.7336 317.301 77.1782 307.827ZM88.6012 314.391C93.9734 304.876 99.2642 295.309 104.467 285.684C109.592 276.014 114.661 266.312 119.705 256.592C124.748 246.871 129.817 237.169 134.982 227.522C140.145 217.874 145.438 208.309 150.88 198.834C156.325 189.36 161.915 179.981 167.636 170.686C173.356 161.391 179.163 152.157 184.996 142.953C190.828 133.749 196.627 124.541 202.364 115.316C208.026 106.048 213.591 96.7438 219.065 87.4054C224.475 78.0344 229.859 68.6668 235.231 59.3238C245.016 42.3029 254.757 25.3567 264.456 8.48225L248.975 8.94611C240.613 23.4919 232.219 38.0995 223.795 52.7516C218.423 62.099 213.039 71.4622 207.647 80.8441C202.248 90.2214 196.798 99.5926 191.255 108.933C185.712 118.274 180.092 127.581 174.426 136.881C168.759 146.181 163.092 155.495 157.475 164.847C151.856 174.201 146.313 183.61 140.872 193.082C135.428 202.556 130.083 212.092 124.819 221.681C119.554 231.27 114.341 240.889 109.131 250.514C103.921 260.138 98.6751 269.738 93.3783 279.309C88.0253 288.847 82.6219 298.349 77.1826 307.825C71.7379 317.299 66.2955 326.763 60.8592 336.222C52.6925 350.429 44.5374 364.616 36.4016 378.776L43.7571 392.447C53.2495 375.932 62.7651 359.376 72.2999 342.793C77.7303 333.338 83.1716 323.87 88.6012 314.391ZM362.599 471.776C367.829 462.178 372.859 452.462 377.708 442.632C382.546 432.797 387.224 422.869 391.841 412.902C396.458 402.935 401.119 392.997 405.968 383.168C410.817 373.339 415.92 363.664 421.364 354.19C426.809 344.716 432.592 335.449 438.629 326.337C444.666 317.224 450.884 308.227 457.14 299.268C463.396 290.308 469.587 281.327 475.611 272.268C481.624 263.203 487.447 254.047 493.062 244.79C498.669 235.532 504.151 226.222 509.749 217.009C529.554 182.552 549.198 148.378 568.614 114.601L561.258 100.929C540.518 137.013 519.505 173.57 498.311 210.44C492.615 219.6 487.059 228.864 481.241 238C475.42 247.134 469.302 256.119 462.923 264.977C456.543 273.834 449.946 282.578 443.277 291.299C436.605 300.018 430.012 308.798 423.69 317.742C417.363 326.687 411.417 335.864 405.974 345.335C400.53 354.809 395.588 364.577 391.031 374.575C386.472 384.571 382.189 394.727 377.988 404.934C373.784 415.14 369.517 425.305 365.041 435.349C360.554 445.388 355.818 455.275 350.792 464.99C345.766 474.705 340.493 484.267 335.378 493.912C314.501 530.234 293.696 566.429 273.052 602.341L288.533 601.877C307.847 568.275 327.299 534.434 346.813 500.48C352.021 490.896 357.366 481.372 362.599 471.776ZM273.213 495.915C278.581 486.443 283.886 476.919 288.878 467.203C293.855 457.478 298.222 447.394 301.792 436.838C305.348 426.274 308.137 415.263 310.274 403.868C312.411 392.473 314.117 380.829 315.818 369.179C317.52 357.529 319.593 346.097 322.511 335.152C325.428 324.208 329.472 313.922 334.914 304.446C340.356 294.971 347.193 286.313 355.151 278.309C363.108 270.305 371.898 262.793 381.053 255.507C390.209 248.222 399.355 240.947 408.072 233.443C416.789 225.938 424.856 218.078 432.159 209.796C439.444 201.508 445.927 192.775 451.786 183.712C457.624 174.634 463.117 165.387 468.523 156.117C473.926 146.845 479.289 137.58 484.637 128.342C500.511 100.723 516.255 73.3355 531.828 46.2393L524.472 32.5679C507.57 61.974 490.464 91.7333 473.201 121.77C467.85 131.007 462.484 140.27 457.078 149.54C451.664 158.806 446.149 168.043 440.145 177.022C434.109 185.986 427.3 194.527 419.54 202.541C411.764 210.546 403.093 218.058 393.784 225.224C384.477 232.388 374.8 239.357 365.191 246.38C355.582 253.404 346.428 260.705 338.215 268.558C330.001 276.41 323.018 284.988 317.573 294.461C312.131 303.937 308.233 314.307 305.575 325.401C302.92 336.497 301.212 348.14 299.969 360.055C298.726 371.97 297.56 383.925 296.018 395.664C294.476 407.402 292.294 418.763 289.209 429.6C286.112 440.429 282.061 450.696 277.252 460.518C272.417 470.324 267.133 479.86 261.772 489.332C256.403 498.804 251.014 508.249 245.637 517.681C228.879 546.837 212.2 575.856 195.644 604.655L211.125 604.191C226.351 577.702 241.68 551.032 257.075 524.25C262.453 514.83 267.844 505.386 273.213 495.915ZM261.768 489.338C267.131 479.863 272.415 470.327 277.249 460.523C282.058 450.702 286.11 440.432 289.206 429.606C292.29 418.769 294.473 407.408 296.014 395.669C297.556 383.931 298.723 371.975 299.966 360.06C301.209 348.146 302.917 336.503 305.572 325.407C308.227 314.311 312.125 303.941 317.57 294.467C323.015 284.993 329.994 276.417 338.212 268.563C346.429 260.71 355.581 253.407 365.188 246.386C374.797 239.362 384.474 232.394 393.781 225.23C403.085 218.065 411.756 210.553 419.537 202.547C427.297 194.532 434.104 185.987 440.142 177.028C446.147 168.046 451.664 158.813 457.075 149.546C462.481 140.275 467.846 131.012 473.197 121.775C490.465 91.7377 507.567 61.9798 524.469 32.5736L517.114 18.9023C498.885 50.6169 480.417 82.7479 461.759 115.206C456.408 124.443 451.043 133.706 445.634 142.975C440.217 152.239 434.674 161.457 428.487 170.333C422.27 179.193 415.132 187.543 406.894 195.282C398.657 203.021 389.503 210.254 379.766 217.173C370.029 224.088 359.99 230.848 350.105 237.712C340.217 244.575 330.859 251.759 322.499 259.53C314.139 267.302 307.077 275.83 301.632 285.304C296.19 294.779 292.372 305.196 289.862 316.375C287.352 327.555 285.85 339.317 284.889 351.394C283.928 363.472 283.123 375.636 282.019 387.627C280.914 399.618 279.223 411.263 276.6 422.366C273.977 433.468 270.251 443.923 265.611 453.842C260.95 463.749 255.687 473.298 250.327 482.774C244.961 492.248 239.573 501.693 234.192 511.123C216.07 542.654 198.036 574.025 180.155 605.133L195.636 604.669C212.19 575.866 228.869 546.847 245.629 517.695C251.014 508.256 256.403 498.811 261.768 489.338ZM250.328 482.767C255.688 473.29 260.953 463.744 265.612 453.835C270.251 443.916 273.975 433.46 276.6 422.358C279.223 411.255 280.915 399.611 282.019 387.62C283.124 375.629 283.928 363.464 284.89 351.387C285.851 339.309 287.353 327.548 289.863 316.368C292.373 305.189 296.191 294.772 301.633 285.297C307.075 275.821 314.137 267.293 322.5 259.523C330.86 251.751 340.218 244.568 350.106 237.705C359.993 230.842 370.03 224.081 379.766 217.165C389.502 210.25 398.659 203.018 406.895 195.275C415.131 187.532 422.273 179.183 428.487 170.326C434.677 161.451 440.221 152.233 445.635 142.968C451.043 133.699 456.409 124.436 461.76 115.199C480.417 82.7406 498.886 50.6097 517.114 18.895L509.759 5.22361C490.21 39.2309 470.371 73.748 450.322 108.63C444.971 117.867 439.605 127.129 434.202 136.401C428.788 145.667 423.219 154.874 416.854 163.644C410.463 172.403 402.994 180.563 394.382 188.085C385.769 195.607 376.28 202.646 366.279 209.413C356.28 216.177 346.061 222.833 336.069 229.635C326.073 236.436 316.667 243.592 308.285 251.346C299.902 259.101 292.823 267.628 287.38 277.098C281.938 286.574 278.134 296.998 275.648 308.192C273.162 319.385 271.711 331.176 270.857 343.316C270.003 355.455 269.384 367.727 268.545 379.871C267.706 392.015 266.352 403.855 264.11 415.178C261.868 426.5 258.466 437.142 253.998 447.161C249.498 457.161 244.252 466.718 238.89 476.19C233.522 485.662 228.133 495.107 222.753 504.538C203.261 538.447 183.877 572.17 164.673 605.581L180.154 605.117C198.035 574.009 216.069 542.638 234.191 511.107C239.573 501.685 244.962 492.24 250.328 482.767ZM350.788 464.991C355.814 455.276 360.547 445.388 365.036 435.351C369.512 425.306 373.782 415.143 377.983 404.936C382.185 394.729 386.468 384.573 391.027 374.576C395.583 364.578 400.525 354.81 405.97 345.337C411.415 335.863 417.359 326.689 423.686 317.743C430.01 308.797 436.605 300.018 443.273 291.3C449.942 282.579 456.54 273.832 462.918 264.978C469.296 256.124 475.417 247.139 481.237 238.001C487.055 228.865 492.615 219.6 498.307 210.441C519.499 173.574 540.514 137.014 561.254 100.931L553.898 87.2594C537.084 116.513 520.085 146.086 502.95 175.894C497.491 185.133 492.066 194.424 486.565 203.692C481.043 212.953 475.339 222.132 469.24 231.105C463.137 240.077 456.644 248.846 449.806 257.438C442.969 266.028 435.861 274.48 428.663 282.896C421.463 291.31 414.377 299.805 407.668 308.526C400.958 317.25 394.797 326.299 389.352 335.773C383.907 345.246 379.185 355.141 375.015 365.362C370.842 375.582 367.055 386.024 363.385 396.538C359.709 407.048 355.955 417.509 351.932 427.815C347.906 438.12 343.546 448.224 338.802 458.102C334.052 467.977 328.923 477.622 323.629 487.163C318.319 496.695 312.952 506.183 307.637 515.686C290.867 544.862 274.162 573.927 257.561 602.803L273.042 602.339C293.684 566.425 314.488 530.23 335.368 493.91C340.488 484.268 345.759 474.705 350.788 464.991Z" stroke="#F8F9FA" stroke-width="1.41225" stroke-miterlimit="10"/>
</svg>
